<?xml version="1.0" encoding="UTF-8" standalone="no"?>
<!DOCTYPE svg PUBLIC "-//W3C//DTD SVG 1.1//EN"
 "http://www.w3.org/Graphics/SVG/1.1/DTD/svg11.dtd">
<!-- Generated by graphviz version 2.40.1 (20161225.0304)
 -->
<!-- Title: Pull Request Workflow Pages: 1 -->
<svg width="710pt" height="423pt"
 viewBox="0.00 0.00 710.43 423.00" xmlns="http://www.w3.org/2000/svg" xmlns:xlink="http://www.w3.org/1999/xlink">
<g id="graph0" class="graph" transform="scale(1 1) rotate(0) translate(4 419)">
<title>Pull Request Workflow</title>
<polygon fill="#ffffff" stroke="transparent" points="-4,4 -4,-419 706.4331,-419 706.4331,4 -4,4"/>
<!-- pr -->
<g id="node1" class="node">
<title>pr</title>
<polygon fill="#e6e6fa" stroke="#e6e6fa" points="129.4423,-415 43.4423,-415 43.4423,-379 129.4423,-379 129.4423,-415"/>
<text text-anchor="middle" x="86.4423" y="-393.3" font-family="Times,serif" font-size="14.00" fill="#000000">Pull Request</text>
</g>
<!-- receive -->
<g id="node2" class="node">
<title>receive</title>
<ellipse fill="#e6e6fa" stroke="#e6e6fa" cx="86.4423" cy="-324" rx="86.3847" ry="18"/>
<text text-anchor="middle" x="86.4423" y="-320.3" font-family="Times,serif" font-size="14.00" fill="#000000">Receive Pull Request</text>
</g>
<!-- pr&#45;&gt;receive -->
<g id="edge1" class="edge">
<title>pr&#45;&gt;receive</title>
<path fill="none" stroke="#000000" d="M86.4423,-378.9551C86.4423,-370.8828 86.4423,-361.1764 86.4423,-352.1817"/>
<polygon fill="#000000" stroke="#000000" points="89.9424,-352.0903 86.4423,-342.0904 82.9424,-352.0904 89.9424,-352.0903"/>
</g>
<!-- validate -->
<g id="node3" class="node">
<title>validate</title>
<ellipse fill="#f5deb3" stroke="#f5deb3" cx="86.4423" cy="-251" rx="68.4888" ry="18"/>
<text text-anchor="middle" x="86.4423" y="-247.3" font-family="Times,serif" font-size="14.00" fill="#000000">Check Valid PR</text>
</g>
<!-- receive&#45;&gt;validate -->
<g id="edge2" class="edge">
<title>receive&#45;&gt;validate</title>
<path fill="none" stroke="#000000" d="M86.4423,-305.9551C86.4423,-297.8828 86.4423,-288.1764 86.4423,-279.1817"/>
<polygon fill="#000000" stroke="#000000" points="89.9424,-279.0903 86.4423,-269.0904 82.9424,-279.0904 89.9424,-279.0903"/>
</g>
<!-- branch -->
<g id="node4" class="node">
<title>branch</title>
<ellipse fill="#f5deb3" stroke="#f5deb3" cx="289.4423" cy="-251" rx="98.5829" ry="18"/>
<text text-anchor="middle" x="289.4423" y="-247.3" font-family="Times,serif" font-size="14.00" fill="#000000">Create md&#45;outputs&#45;{PR}</text>
</g>
<!-- validate&#45;&gt;branch -->
<g id="edge3" class="edge">
<title>validate&#45;&gt;branch</title>
<path fill="none" stroke="#000000" d="M155.0341,-251C163.4326,-251 171.8311,-251 180.2295,-251"/>
<polygon fill="#000000" stroke="#000000" points="180.4738,-254.5001 190.4738,-251 180.4738,-247.5001 180.4738,-254.5001"/>
</g>
<!-- comment -->
<g id="node5" class="node">
<title>comment</title>
<ellipse fill="#f5deb3" stroke="#f5deb3" cx="528.4423" cy="-251" rx="104.7816" ry="18"/>
<text text-anchor="middle" x="528.4423" y="-247.3" font-family="Times,serif" font-size="14.00" fill="#000000">Comment on Pull Request</text>
</g>
<!-- branch&#45;&gt;comment -->
<g id="edge4" class="edge">
<title>branch&#45;&gt;comment</title>
<path fill="none" stroke="#000000" d="M388.4033,-251C396.7647,-251 405.1261,-251 413.4875,-251"/>
<polygon fill="#000000" stroke="#000000" points="413.6866,-254.5001 423.6865,-251 413.6865,-247.5001 413.6866,-254.5001"/>
</g>
<!-- review -->
<g id="node8" class="node">
<title>review</title>
<polygon fill="#f5deb3" stroke="#f5deb3" points="589.4423,-196 467.4423,-196 467.4423,-160 589.4423,-160 589.4423,-196"/>
<text text-anchor="middle" x="528.4423" y="-174.3" font-family="Times,serif" font-size="14.00" fill="#000000">Maintainer Review</text>
</g>
<!-- comment&#45;&gt;review -->
<g id="edge5" class="edge">
<title>comment&#45;&gt;review</title>
<path fill="none" stroke="#000000" d="M528.4423,-232.9551C528.4423,-224.8828 528.4423,-215.1764 528.4423,-206.1817"/>
<polygon fill="#000000" stroke="#000000" points="531.9424,-206.0903 528.4423,-196.0904 524.9424,-206.0904 531.9424,-206.0903"/>
</g>
<!-- deploy -->
<g id="node6" class="node">
<title>deploy</title>
<ellipse fill="#f5deb3" stroke="#f5deb3" cx="440.4423" cy="-18" rx="36.2938" ry="18"/>
<text text-anchor="middle" x="440.4423" y="-14.3" font-family="Times,serif" font-size="14.00" fill="#000000">Deploy</text>
</g>
<!-- destroy -->
<g id="node7" class="node">
<title>destroy</title>
<ellipse fill="#f5deb3" stroke="#f5deb3" cx="598.4423" cy="-18" rx="103.9815" ry="18"/>
<text text-anchor="middle" x="598.4423" y="-14.3" font-family="Times,serif" font-size="14.00" fill="#000000">Destroy md&#45;outputs&#45;{PR}</text>
</g>
<!-- accept -->
<g id="node9" class="node">
<title>accept</title>
<polygon fill="#b0e0e6" stroke="#b0e0e6" points="459.4423,-109 396.9369,-91 459.4423,-73 521.9477,-91 459.4423,-109"/>
<text text-anchor="middle" x="459.4423" y="-87.3" font-family="Times,serif" font-size="14.00" fill="#000000">Accepted</text>
</g>
<!-- review&#45;&gt;accept -->
<g id="edge6" class="edge">
<title>review&#45;&gt;accept</title>
<path fill="none" stroke="#000000" d="M514.1455,-159.9735C503.5203,-146.5765 488.9477,-128.2024 477.5148,-113.7871"/>
<polygon fill="#000000" stroke="#000000" points="480.156,-111.4847 471.1998,-105.8246 474.6715,-115.8345 480.156,-111.4847"/>
<text text-anchor="middle" x="515.9423" y="-130.8" font-family="Times,serif" font-size="14.00" fill="#000000">merge</text>
</g>
<!-- reject -->
<g id="node10" class="node">
<title>reject</title>
<polygon fill="#b22222" stroke="#b22222" points="598.4423,-109 539.7897,-91 598.4423,-73 657.095,-91 598.4423,-109"/>
<text text-anchor="middle" x="598.4423" y="-87.3" font-family="Times,serif" font-size="14.00" fill="#000000">Rejected</text>
</g>
<!-- review&#45;&gt;reject -->
<g id="edge7" class="edge">
<title>review&#45;&gt;reject</title>
<path fill="none" stroke="#000000" d="M542.9464,-159.9735C553.7925,-146.4933 568.6932,-127.9739 580.3236,-113.5189"/>
<polygon fill="#000000" stroke="#000000" points="583.1963,-115.5318 586.7382,-105.5465 577.7425,-111.1437 583.1963,-115.5318"/>
<text text-anchor="middle" x="582.4423" y="-130.8" font-family="Times,serif" font-size="14.00" fill="#000000">close</text>
</g>
<!-- accept&#45;&gt;deploy -->
<g id="edge8" class="edge">
<title>accept&#45;&gt;deploy</title>
<path fill="none" stroke="#000000" d="M455.0356,-74.0688C452.8458,-65.6556 450.1435,-55.2729 447.6618,-45.7381"/>
<polygon fill="#000000" stroke="#000000" points="450.9963,-44.6538 445.0903,-35.8578 444.222,-46.417 450.9963,-44.6538"/>
</g>
<!-- accept&#45;&gt;destroy -->
<g id="edge9" class="edge">
<title>accept&#45;&gt;destroy</title>
<path fill="none" stroke="#000000" d="M481.7751,-79.2713C501.9176,-68.6929 532.068,-52.8585 556.6723,-39.9368"/>
<polygon fill="#000000" stroke="#000000" points="558.5722,-42.8924 565.7981,-35.1441 555.3174,-36.6951 558.5722,-42.8924"/>
</g>
<!-- reject&#45;&gt;destroy -->
<g id="edge10" class="edge">
<title>reject&#45;&gt;destroy</title>
<path fill="none" stroke="#000000" d="M598.4423,-72.9551C598.4423,-64.8828 598.4423,-55.1764 598.4423,-46.1817"/>
<polygon fill="#000000" stroke="#000000" points="601.9424,-46.0903 598.4423,-36.0904 594.9424,-46.0904 601.9424,-46.0903"/>
</g>
</g>
</svg>
